HIERARCHY
ROOT Hips
{
	OFFSET	0.00	0.00	0.00
	CHANNELS 6 Xposition Yposition Zposition Zrotation Xrotation Yrotation
	JOINT LeftUpLeg
	{
		OFFSET	 0.126116	-0.065224	 0.014019
		CHANNELS 3 Zrotation Xrotation Yrotation
		JOINT LeftLeg
		{
			OFFSET	 0.000000	 0.569914	 0.000000
			CHANNELS 3 Zrotation Xrotation Yrotation
			JOINT LeftFoot
			{
				OFFSET	 0.000000	 0.544423	 0.000000
				CHANNELS 3 Zrotation Xrotation Yrotation
				JOINT LeftToeBase
				{
					OFFSET	 0.000000	 0.207117	 0.000000
					CHANNELS 3 Zrotation Xrotation Yrotation
					End Site
					{
						OFFSET	 0.000000	 0.207117	 0.000000
					}
				}
			}
		}
	}
	JOINT RightUpLeg
	{
		OFFSET	-0.124023	-0.065224	 0.008373
		CHANNELS 3 Zrotation Xrotation Yrotation
		JOINT RightLeg
		{
			OFFSET	 0.000000	 0.570047	 0.000000
			CHANNELS 3 Zrotation Xrotation Yrotation
			JOINT RightFoot
			{
				OFFSET	 0.000000	 0.544354	 0.000000
				CHANNELS 3 Zrotation Xrotation Yrotation
				JOINT RightToeBase
				{
					OFFSET	 0.000000	 0.207540	 0.000000
					CHANNELS 3 Zrotation Xrotation Yrotation
					End Site
					{
						OFFSET	 0.000000	 0.207540	 0.000000
					}
				}
			}
		}
	}
	JOINT Spine
	{
		OFFSET	 0.000184	 0.117403	 0.007763
		CHANNELS 3 Zrotation Xrotation Yrotation
		JOINT Spine1
		{
			OFFSET	 0.000000	 0.137269	 0.000000
			CHANNELS 3 Zrotation Xrotation Yrotation
			JOINT Spine2
			{
				OFFSET	 0.000000	 0.156879	 0.000000
				CHANNELS 3 Zrotation Xrotation Yrotation
				JOINT LeftShoulder
				{
					OFFSET	 0.080501	 0.160143	 0.002496
					CHANNELS 3 Zrotation Xrotation Yrotation
					JOINT LeftArm
					{
						OFFSET	 0.000000	 0.164363	 0.000000
						CHANNELS 3 Zrotation Xrotation Yrotation
						JOINT LeftForeArm
						{
							OFFSET	 0.000000	 0.364576	 0.000000
							CHANNELS 3 Zrotation Xrotation Yrotation
							JOINT LeftHand
							{
								OFFSET	 0.000000	 0.360812	 0.000000
								CHANNELS 3 Zrotation Xrotation Yrotation
								JOINT LeftHandIndex1
								{
									OFFSET	 0.000000	 0.086006	 0.000000
									CHANNELS 3 Zrotation Xrotation Yrotation
									JOINT LeftHandIndex2
									{
										OFFSET	 0.000000	 0.047237	 0.000000
										CHANNELS 3 Zrotation Xrotation Yrotation
										JOINT LeftHandIndex3
										{
											OFFSET	-0.004284	 0.038165	 0.000551
											CHANNELS 3 Zrotation Xrotation Yrotation
											End Site
											{
												OFFSET	-0.004284	 0.038165	 0.000551
											}
										}
									}
								}
							}
						}
					}
				}
				JOINT Neck
				{
					OFFSET	 0.000000	 0.176489	 0.000000
					CHANNELS 3 Zrotation Xrotation Yrotation
					JOINT Head
					{
						OFFSET	 0.000000	 0.077941	 0.001747
						CHANNELS 3 Zrotation Xrotation Yrotation
						End Site
						{
							OFFSET	 0.000000	 0.077941	 0.001747
						}
					}
				}
				JOINT RightShoulder
				{
					OFFSET	-0.080363	 0.159706	-0.000306
					CHANNELS 3 Zrotation Xrotation Yrotation
					JOINT RightArm
					{
						OFFSET	 0.000000	 0.164196	 0.000000
						CHANNELS 3 Zrotation Xrotation Yrotation
						JOINT RightForeArm
						{
							OFFSET	 0.000000	 0.365611	 0.000000
							CHANNELS 3 Zrotation Xrotation Yrotation
							JOINT RightHand
							{
								OFFSET	 0.000000	 0.360648	 0.000000
								CHANNELS 3 Zrotation Xrotation Yrotation
								JOINT RightHandIndex1
								{
									OFFSET	 0.000000	 0.069977	 0.000000
									CHANNELS 3 Zrotation Xrotation Yrotation
									JOINT RightHandIndex2
									{
										OFFSET	 0.000000	 0.052305	 0.000000
										CHANNELS 3 Zrotation Xrotation Yrotation
										JOINT RightHandIndex3
										{
											OFFSET	 0.009002	 0.042196	 0.000782
											CHANNELS 3 Zrotation Xrotation Yrotation
											End Site
											{
												OFFSET	 0.009002	 0.042196	 0.000782
											}
										}
									}
								}
							}
						}
					}
				}
			}
		}
	}
}
MOTION
Frames:    7
Frame Time: 0.03333334
 0.428861	 0.974323	-0.134791	 37.128220	-36.352920	-107.981900	 8.694595	 78.359830	 178.351700	 13.944990	-69.063840	 15.817580	 10.687360	 40.359210	-29.793110	 2.737859	 50.977600	-6.596450	 1.498945	 76.352640	 148.748300	-37.743530	-81.985750	-37.216590	-57.148970	 66.261230	 82.472500	-1.652397	 33.399950	 2.854249	 3.534384	 16.235900	-3.203598	-16.192420	 16.297090	 5.354746	 5.931993	 20.985760	 14.691700	-110.314000	 10.308420	 93.763440	 31.318250	 45.170850	-17.409560	 17.581330	-0.927952	 0.371442	 15.057480	-59.330540	 26.345800	-5.910906	 2.890559	-8.103880	-6.631279	 5.745128	 1.556045	 4.963066	-4.014628	-0.346955	 6.493722	-5.910807	 2.711837	 8.885804	-1.068583	-42.928260	 79.462220	 12.370810	-83.188750	-33.757140	 23.862090	 63.216610	-46.880980	-3.864246	 12.455190	 27.633480	-21.742450	 13.929530	-0.584032	 7.445198	-0.608115	 14.759310	 23.032420	-6.934669	-8.239867	-2.131385	 0.447455
 0.494890	 1.013339	-0.162211	 26.767640	-25.696990	-99.917340	 169.109200	 78.661090	-10.323400	 79.759990	-84.647520	 85.114760	 45.869160	 33.609890	-53.086030	 1.345687	 48.296350	-6.975408	 91.544940	 77.911160	 68.811040	-30.673190	-80.410990	-30.682600	-61.178200	 64.162300	 83.269730	-1.642687	 33.258970	 2.844760	 3.555429	 15.112790	-2.851133	-15.388420	 6.748968	 3.886357	 10.826240	 20.777760	 15.070940	-107.021400	 6.033176	 91.884510	 11.043000	 60.196220	 1.576475	 26.474880	-1.335237	 0.664487	-1.852597	-43.226700	 22.507190	-4.166907	 3.493471	-8.134804	-6.796567	 6.844453	 1.768491	 4.963066	-4.014628	-0.346955	 8.515024	-2.320072	 3.122147	 5.211917	 4.238768	-41.304420	 85.379780	 9.544516	-89.586500	-43.419400	 41.750460	 59.950490	-72.777600	-5.051129	 7.989032	 20.838130	-12.270730	 5.470049	-3.614527	 15.572870	-1.655917	 14.289440	 21.447620	-6.345189	-8.239867	-2.131385	 0.447455
 0.536686	 1.079801	-0.176164	 19.041870	-16.982900	-87.494750	 177.449300	 38.389970	-28.501380	 33.048690	-80.404080	 40.598550	 51.034820	 33.315180	-58.690750	 0.085805	 43.186170	-4.039229	 125.339400	 59.662410	 44.199530	-16.173090	-72.807110	-16.667830	-60.580960	 60.906600	 81.035210	-1.645538	 33.305390	 2.847593	 3.947932	 12.646510	-1.837061	-18.285190	-3.112697	 1.450493	 18.471980	 22.273110	 13.391400	-102.952500	 4.025059	 91.080600	-3.320799	 69.420270	 15.310080	 23.880720	-1.227839	 0.873977	-11.372420	-28.765770	 25.109870	-2.658958	 1.652817	-8.343858	-6.935180	 7.737464	 1.944188	 4.963066	-4.014628	-0.346955	 11.923700	 3.407052	 2.365152	 0.716921	 7.181134	-40.866960	 88.846030	 6.395058	-91.777150	-57.542240	 41.250680	 71.711450	-75.380550	-5.116678	 6.286237	 16.367120	-4.915169	-5.079873	-3.085139	 16.508020	-2.165944	 14.262040	 21.719790	-6.410216	-8.239867	-2.131385	 0.447455
 0.600305	 1.131076	-0.151075	 15.137200	-10.121940	-70.024860	 178.811800	 14.548920	-24.485560	 8.314765	-57.479820	 14.560760	 47.257700	 46.781620	-70.418150	 1.462009	 40.121410	-5.896792	 127.222200	 39.847670	 52.997540	-9.568880	-62.595310	-10.196750	-50.900340	 57.612870	 70.619020	-1.649206	 33.362140	 2.850801	 3.273166	 9.753765	-1.201987	-13.273400	-2.761260	 1.422208	 15.089120	 15.534930	 10.656660	-101.551300	 0.539041	 91.395470	-4.113432	 67.751750	 14.845920	 22.687090	-1.181066	 1.038808	-9.896198	-20.136050	 22.178700	-2.452933	 9.848464	-7.910122	-7.016542	 8.135433	 2.023561	 4.963066	-4.014628	-0.346955	 15.422940	 2.724951	 0.081532	-1.964042	 4.321802	-42.886600	 88.874180	 1.488653	-91.863620	-60.110660	 28.139300	 84.533370	-65.768820	-4.823413	 5.948982	 14.447460	-9.064766	-10.896220	-2.913058	 16.690360	-2.525913	 14.306990	 22.329210	-6.590231	-8.239867	-2.131385	 0.447455
 0.728441	 1.146789	-0.113772	 11.496640	-4.863265	-49.708930	 176.628400	 14.512000	-9.552514	 6.065495	-48.893270	 10.477210	 71.517910	 50.337910	-98.552330	 1.660490	 27.781980	-7.457827	 126.587800	 24.614710	 65.137120	-6.811111	-53.994500	-6.865722	-40.395180	 52.220140	 57.565960	-1.731149	 33.051590	 3.044901	 1.455229	 7.512945	-0.032840	-2.855572	 3.585632	 1.636040	 4.100737	 6.317798	 5.127285	-101.595000	-3.008889	 95.452200	 8.986184	 60.275510	-2.792251	 32.858430	-1.660921	 1.446280	-3.280184	-16.200610	 23.505610	-3.717253	 14.603160	-7.259410	-7.088706	 8.368935	 2.068166	 4.963066	-4.014628	-0.346955	 16.666500	-5.811931	-3.894774	-0.494808	-2.997592	-45.627340	 87.573460	-5.296467	-90.857060	-44.838200	 10.036270	 91.746830	-43.667470	-3.655846	 6.325532	 11.640760	-22.282090	-6.930501	-2.909832	 16.484270	-2.882621	 14.360750	 23.076030	-6.811109	-8.239867	-2.131385	 0.447455
 0.826414	 1.182176	-0.092887	 8.501611	-3.621019	-41.713070	 173.788600	 14.971230	-3.432331	 5.280917	-44.949890	 8.516146	 74.673390	 48.467710	-95.055720	 1.397985	 23.660680	-7.474005	 142.875400	 29.121460	 44.702600	-6.972263	-54.625960	-6.497558	-48.045180	 56.787250	 66.225200	-1.897438	 31.943890	 3.572257	 0.539109	 6.626996	 0.413356	-2.322259	 3.616694	 0.611619	 2.601816	 4.817923	 1.237641	-105.384800	-10.436870	 98.969780	 21.301890	 53.309340	-15.388470	 35.266750	-1.758497	 1.580389	-4.500153	-15.113940	 17.984570	-5.334655	 15.192800	-6.641272	-7.154961	 8.595363	 2.110002	 4.963066	-4.014628	-0.346955	 14.843460	-8.023084	-8.226087	 1.955509	-2.622293	-45.870620	 88.275700	-3.309222	-91.143860	-31.419130	-0.843802	 82.899610	-24.967780	-2.236898	 5.874856	 21.605520	-27.629300	 9.980807	-2.907135	 16.311310	-3.181951	 14.381280	 23.588510	-6.957524	-8.239867	-2.131385	 0.447455
 0.892764	 1.225395	-0.074574	 4.712327	-3.879634	-39.327150	 173.442500	 9.928288	-1.674656	 4.016529	-37.224330	 5.635550	 70.640460	 47.784050	-85.955090	 1.398020	 23.660650	-7.474025	 160.866300	 27.627090	 21.862870	-5.311930	-47.048440	-4.380187	-48.457030	 56.284860	 65.120900	-1.686173	 30.120490	 3.646069	-0.144440	 5.838563	 0.224291	-2.376162	 1.904608	-0.427914	 1.597077	 3.733074	-0.891606	-108.740900	-18.723660	 101.289100	 27.149550	 50.139190	-21.722510	 37.100350	-1.831780	 1.613837	-10.443840	-16.293020	 10.002030	-6.661862	 15.570290	-6.122325	-7.222890	 8.838167	 2.156057	 4.963066	-4.014628	-0.346955	 11.819000	-8.579142	-11.531830	 2.133553	 0.455256	-44.721620	 90.539020	 0.671286	-91.924870	-26.123680	-5.232131	 71.335370	-16.314900	-1.489093	 5.393868	 27.461410	-22.283250	 23.577370	-2.904420	 16.140770	-3.477065	 14.400760	 24.084510	-7.099273	-8.239867	-2.131385	 0.447455
